<?xml version="1.0" encoding="UTF-8" standalone="no"?>
<svg
   version="1.2"
   width="153.38mm"
   height="153.38mm"
   viewBox="0 0 15338 15338"
   preserveAspectRatio="xMidYMid"
   fill-rule="evenodd"
   stroke-width="28.222"
   stroke-linejoin="round"
   xml:space="preserve"
   id="svg2001"
   sodipodi:docname="BigCat10.svg"
   inkscape:version="1.2.2 (732a01da63, 2022-12-09, custom)"
   xmlns:inkscape="http://www.inkscape.org/namespaces/inkscape"
   xmlns:sodipodi="http://sodipodi.sourceforge.net/DTD/sodipodi-0.dtd"
   xmlns="http://www.w3.org/2000/svg"
   xmlns:svg="http://www.w3.org/2000/svg"
   xmlns:ooo="http://xml.openoffice.org/svg/export"><sodipodi:namedview
   id="namedview2003"
   pagecolor="#ffffff"
   bordercolor="#000000"
   borderopacity="0.25"
   inkscape:showpageshadow="2"
   inkscape:pageopacity="0.0"
   inkscape:pagecheckerboard="0"
   inkscape:deskcolor="#d1d1d1"
   inkscape:document-units="mm"
   showgrid="false"
   inkscape:zoom="1.4283152"
   inkscape:cx="289.85198"
   inkscape:cy="177.83189"
   inkscape:window-width="1920"
   inkscape:window-height="1031"
   inkscape:window-x="0"
   inkscape:window-y="25"
   inkscape:window-maximized="1"
   inkscape:current-layer="layer5" />
 <defs
   class="ClipPathGroup"
   id="defs1908">
  <clipPath
   id="presentation_clip_path"
   clipPathUnits="userSpaceOnUse">
   <rect
   x="0"
   y="0"
   width="15338"
   height="15338"
   id="rect1902" />
  </clipPath>
  <clipPath
   id="presentation_clip_path_shrink"
   clipPathUnits="userSpaceOnUse">
   <rect
   x="15"
   y="15"
   width="15308"
   height="15308"
   id="rect1905" />
  </clipPath>
 </defs>
 <defs
   class="TextShapeIndex"
   id="defs1912">
  <g
   ooo:slide="id1"
   ooo:id-list="id3 id4 id5 id6 id7"
   id="g1910" />
 </defs>
 <defs
   class="EmbeddedBulletChars"
   id="defs1944">
  <g
   id="bullet-char-template-57356"
   transform="scale(0.00048828125,-0.00048828125)">
   <path
   d="M 580,1141 L 1163,571 580,0 -4,571 580,1141 Z"
   id="path1914" />
  </g>
  <g
   id="bullet-char-template-57354"
   transform="scale(0.00048828125,-0.00048828125)">
   <path
   d="M 8,1128 L 1137,1128 1137,0 8,0 8,1128 Z"
   id="path1917" />
  </g>
  <g
   id="bullet-char-template-10146"
   transform="scale(0.00048828125,-0.00048828125)">
   <path
   d="M 174,0 L 602,739 174,1481 1456,739 174,0 Z M 1358,739 L 309,1346 659,739 1358,739 Z"
   id="path1920" />
  </g>
  <g
   id="bullet-char-template-10132"
   transform="scale(0.00048828125,-0.00048828125)">
   <path
   d="M 2015,739 L 1276,0 717,0 1260,543 174,543 174,936 1260,936 717,1481 1274,1481 2015,739 Z"
   id="path1923" />
  </g>
  <g
   id="bullet-char-template-10007"
   transform="scale(0.00048828125,-0.00048828125)">
   <path
   d="M 0,-2 C -7,14 -16,27 -25,37 L 356,567 C 262,823 215,952 215,954 215,979 228,992 255,992 264,992 276,990 289,987 310,991 331,999 354,1012 L 381,999 492,748 772,1049 836,1024 860,1049 C 881,1039 901,1025 922,1006 886,937 835,863 770,784 769,783 710,716 594,584 L 774,223 C 774,196 753,168 711,139 L 727,119 C 717,90 699,76 672,76 641,76 570,178 457,381 L 164,-76 C 142,-110 111,-127 72,-127 30,-127 9,-110 8,-76 1,-67 -2,-52 -2,-32 -2,-23 -1,-13 0,-2 Z"
   id="path1926" />
  </g>
  <g
   id="bullet-char-template-10004"
   transform="scale(0.00048828125,-0.00048828125)">
   <path
   d="M 285,-33 C 182,-33 111,30 74,156 52,228 41,333 41,471 41,549 55,616 82,672 116,743 169,778 240,778 293,778 328,747 346,684 L 369,508 C 377,444 397,411 428,410 L 1163,1116 C 1174,1127 1196,1133 1229,1133 1271,1133 1292,1118 1292,1087 L 1292,965 C 1292,929 1282,901 1262,881 L 442,47 C 390,-6 338,-33 285,-33 Z"
   id="path1929" />
  </g>
  <g
   id="bullet-char-template-9679"
   transform="scale(0.00048828125,-0.00048828125)">
   <path
   d="M 813,0 C 632,0 489,54 383,161 276,268 223,411 223,592 223,773 276,916 383,1023 489,1130 632,1184 813,1184 992,1184 1136,1130 1245,1023 1353,916 1407,772 1407,592 1407,412 1353,268 1245,161 1136,54 992,0 813,0 Z"
   id="path1932" />
  </g>
  <g
   id="bullet-char-template-8226"
   transform="scale(0.00048828125,-0.00048828125)">
   <path
   d="M 346,457 C 273,457 209,483 155,535 101,586 74,649 74,723 74,796 101,859 155,911 209,963 273,989 346,989 419,989 480,963 531,910 582,859 608,796 608,723 608,648 583,586 532,535 482,483 420,457 346,457 Z"
   id="path1935" />
  </g>
  <g
   id="bullet-char-template-8211"
   transform="scale(0.00048828125,-0.00048828125)">
   <path
   d="M -4,459 L 1135,459 1135,606 -4,606 -4,459 Z"
   id="path1938" />
  </g>
  <g
   id="bullet-char-template-61548"
   transform="scale(0.00048828125,-0.00048828125)">
   <path
   d="M 173,740 C 173,903 231,1043 346,1159 462,1274 601,1332 765,1332 928,1332 1067,1274 1183,1159 1299,1043 1357,903 1357,740 1357,577 1299,437 1183,322 1067,206 928,148 765,148 601,148 462,206 346,322 231,437 173,577 173,740 Z"
   id="path1941" />
  </g>
 </defs>
 
 
<g
   inkscape:groupmode="layer"
   id="layer5"
   inkscape:label="Layer 1"><path
     fill="#ffffd7"
     stroke="none"
     d="m 10368,12744 -146,269 -86,93 -114,-97 -105,-102 z"
     id="path1953"
     style="display:inline" /><path
     fill="#e8a202"
     stroke="none"
     d="m 10360,12752 -411,159 82,130 105,57 127,-118 z m 489,-350 -57,138 -126,155 -139,90 53,44 h 244 l 245,-130 85,-81 -142,-135 z m -277,-4648 304,680 194,-84 110,-269 31,-221 -9,-119 z m 3593,3666 c -658,1140 -1605,2087 -2745,2745 -1140,658 -2434,1005 -3750,1005 -1317,0 -2611,-347 -3751,-1005 C 2779,13507 1832,12560 1174,11420 516,10280 169,8986 169,7670 169,6353 516,5059 1174,3919 1832,2779 2779,1832 3919,1174 5059,516 6353,169 7669,169 c 1317,0 2611,347 3751,1005 1140,658 2087,1605 2745,2745 658,1140 1005,2434 1005,3750 0,1317 -347,2611 -1005,3751 z"
     id="path1960"
     style="display:inline" /><path
     fill="#ffffd7"
     stroke="none"
     d="m 10527,12797 82,-86 93,-97 106,-98 57,-106 114,41 114,126 29,90 -273,175 -167,16 z"
     id="path1967"
     style="display:inline" /><path
     fill="#ffffa6"
     stroke="none"
     d="m 10576,7776 304,662 221,-212 70,-163 -4,-216 -13,-93 z"
     id="path1974"
     style="display:inline" /><path
     fill="#100f0d"
     stroke="none"
     d="m 2858,11994 c -4,-1 -10,-1 -16,-1 -18,-1 -40,0 -63,3 -71,10 -154,37 -163,85 -5,23 8,51 49,83 16,13 37,27 62,42 32,18 64,30 95,37 61,14 117,7 160,-12 36,-16 63,-40 76,-67 28,-60 -11,-134 -166,-164 -11,-3 -22,-4 -34,-6 z m 680,-260 c -16,0 -33,2 -51,4 -72,10 -156,39 -161,89 -2,31 27,71 112,120 16,10 32,17 48,23 75,30 145,27 197,7 32,-12 58,-31 75,-52 50,-66 14,-161 -188,-190 -9,-1 -20,-1 -32,-1 z m 404,-330 c 6,119 64,210 153,181 30,-10 55,-36 75,-71 7,-13 14,-27 20,-42 26,-65 39,-148 39,-224 0,-138 -44,-251 -134,-185 -115,82 -159,225 -153,341 z m 6059,1509 c -9,4 -12,9 -11,18 3,36 66,95 132,113 24,-12 140,-152 180,-236 10,-20 11,-29 11,-33 -30,6 -179,76 -253,110 -24,12 -45,21 -59,28 z m 3609,-1687 c -6,-6 -13,-12 -22,-18 34,-280 -171,-876 -599,-1732 -184,-366 -157,-467 -140,-534 8,-29 12,-46 -5,-77 -152,-287 -299,-687 -453,-1111 -289,-789 -616,-1683 -1051,-1955 -512,-320 -1015,-823 -1458,-1268 -249,-250 -485,-487 -688,-653 9,-4 18,-7 27,-10 5,-2 9,-4 14,-5 39,-16 78,-34 114,-57 37,-22 71,-48 101,-78 29,-30 54,-64 75,-100 -24,34 -52,65 -84,91 -32,26 -67,48 -104,66 -36,17 -75,31 -114,43 -13,3 -26,6 -39,10 -7,1 -14,3 -21,5 -3,1 -6,2 -9,2 -6,-4 -12,-9 -17,-14 l -9,-6 6,-10 c 4,-8 9,-16 13,-24 13,-8 27,-17 40,-25 9,-7 19,-13 28,-20 55,-37 107,-78 153,-126 45,-48 85,-103 109,-164 26,-62 35,-128 30,-193 1,65 -13,130 -41,188 -28,57 -69,108 -116,151 -43,40 -91,74 -141,105 -5,3 -9,5 -14,8 -6,4 -13,8 -19,11 16,-42 28,-87 36,-135 5,-6 10,-12 14,-18 6,-8 11,-16 17,-24 50,-71 94,-146 128,-225 38,-88 65,-182 72,-277 8,-96 -6,-193 -42,-281 32,89 42,186 30,279 -12,94 -41,184 -82,269 -29,58 -62,113 -100,166 -9,13 -18,25 -27,37 25,-253 -36,-543 -110,-714 -35,-83 -65,-116 -82,-120 -54,-12 -253,184 -413,342 -182,179 -297,289 -345,289 -43,0 -84,-44 -131,-95 -71,-78 -144,-158 -231,-92 -19,14 -38,33 -61,55 -59,58 -133,130 -253,172 -24,9 -55,12 -92,12 -17,0 -36,-1 -55,-2 l -36,-28 -693,-533 469,490 31,33 c -130,-29 -278,-72 -428,-121 -21,-16 -42,-32 -64,-48 -84,-65 -168,-133 -251,-202 -106,-88 -213,-175 -323,-257 93,101 183,205 271,310 16,19 32,38 48,56 11,14 23,28 34,41 -132,-50 -256,-100 -359,-147 -23,-19 -47,-40 -71,-60 -2,-2 -4,-4 -7,-6 -96,-84 -195,-165 -297,-240 46,50 89,100 132,151 15,19 31,38 46,58 -11,-7 -21,-13 -30,-19 -77,-50 -160,-75 -253,-81 -19,-9 -38,-18 -57,-27 -84,-38 -167,-77 -250,-118 -110,-55 -220,-111 -318,-186 91,85 196,152 300,218 51,32 103,64 155,95 12,7 24,14 36,21 -54,5 -112,15 -175,29 -19,-4 -39,-8 -58,-12 -60,-13 -119,-26 -178,-41 -59,-15 -117,-32 -174,-53 -57,-21 -113,-46 -161,-84 44,42 98,74 153,101 56,27 113,50 171,71 29,11 59,22 89,32 14,5 29,9 43,14 -47,12 -96,26 -148,41 -17,-4 -33,-8 -50,-11 -65,-13 -129,-22 -193,-31 -86,-12 -172,-24 -256,-45 -83,-21 -165,-51 -235,-105 62,63 142,107 224,140 82,34 168,58 252,82 12,4 23,7 35,11 15,4 29,8 43,13 -14,4 -29,9 -45,13 l -3,1 c -70,21 -150,40 -238,56 -17,-6 -35,-11 -52,-16 -58,-17 -116,-33 -173,-49 -100,-27 -200,-55 -297,-88 -97,-34 -194,-72 -277,-135 75,73 169,124 263,169 94,46 191,85 287,124 4,2 7,3 11,5 15,6 31,12 47,19 -32,4 -65,8 -98,11 -28,-6 -56,-11 -84,-17 -66,-12 -131,-24 -196,-36 -146,-28 -292,-54 -436,-87 -72,-16 -144,-34 -214,-57 -70,-22 -140,-48 -199,-93 55,50 124,82 193,111 69,28 139,52 210,75 120,38 242,72 363,105 22,6 44,12 66,18 4,1 7,2 11,3 -101,5 -205,8 -313,9 -41,-8 -82,-16 -122,-24 -1,0 -3,0 -4,-1 -65,-12 -129,-23 -192,-39 -63,-15 -125,-37 -185,-66 -59,-28 -116,-64 -170,-105 46,50 96,96 151,137 33,24 68,46 103,66 17,9 35,18 52,27 -21,-1 -42,-2 -62,-3 -39,-10 -78,-20 -116,-30 -45,-13 -90,-25 -135,-39 -95,-29 -190,-61 -281,-99 -26,-11 -52,-23 -77,-35 -65,-31 -127,-66 -184,-110 49,49 106,91 165,129 26,17 52,33 79,49 53,30 108,58 163,85 21,10 43,20 64,30 -141,-11 -281,-26 -418,-45 -314,342 -594,714 -836,1114 -811,1575 -1075,3183 -785,4794 358,1992 1433,3243 1763,3587 8,-2 21,-7 39,-12 5,4 11,8 16,12 2,2 4,4 6,6 16,15 27,31 37,52 11,26 17,56 21,87 4,25 5,50 7,76 4,-19 9,-39 12,-58 8,-37 12,-76 8,-118 -3,-20 -9,-41 -18,-61 -3,-8 -7,-15 -11,-22 41,-15 92,-32 150,-53 7,7 15,13 22,19 15,12 29,24 42,37 18,17 32,37 43,61 19,45 23,101 26,155 12,-53 24,-107 18,-167 -5,-31 -17,-64 -34,-92 -5,-8 -10,-16 -15,-23 -5,-7 -9,-15 -14,-22 44,-16 90,-33 139,-52 7,7 14,13 21,19 5,4 11,9 16,14 28,24 54,47 76,72 18,18 32,39 43,64 17,43 22,96 24,147 11,-50 22,-101 15,-158 -5,-31 -16,-64 -33,-92 -16,-29 -35,-56 -53,-81 -3,-5 -6,-9 -9,-13 -2,-3 -4,-6 -6,-8 43,-17 86,-34 131,-52 7,6 13,12 20,18 21,19 42,38 63,57 29,27 57,54 81,83 18,20 31,41 42,67 17,41 22,91 24,139 10,-47 18,-96 12,-149 -5,-31 -16,-64 -33,-92 -20,-38 -43,-72 -67,-105 -9,-13 -19,-26 -28,-39 -5,-7 -10,-14 -15,-21 40,-17 81,-34 122,-52 6,6 13,12 20,18 38,35 76,70 113,105 31,30 61,61 86,94 18,21 31,44 42,70 15,39 20,86 22,132 9,-45 16,-91 10,-141 -6,-31 -17,-64 -32,-92 -21,-42 -47,-80 -72,-116 -24,-33 -47,-65 -71,-96 -5,-7 -10,-14 -15,-21 37,-17 75,-34 112,-52 6,6 13,12 19,18 58,52 115,104 169,158 34,34 66,68 92,105 17,22 31,46 42,73 14,37 19,81 20,124 9,-43 14,-86 8,-132 -6,-31 -17,-63 -32,-92 -22,-45 -49,-87 -77,-126 -39,-56 -80,-108 -120,-160 -5,-7 -11,-13 -16,-20 34,-17 68,-35 101,-52 7,5 14,11 20,17 2,1 3,2 5,4 78,69 156,139 228,213 36,37 69,75 97,116 17,23 30,48 41,76 13,35 19,76 19,116 8,-40 11,-80 5,-123 -6,-31 -16,-63 -31,-92 -23,-49 -52,-94 -81,-137 -57,-80 -118,-156 -179,-230 -4,-5 -9,-10 -13,-15 -1,-2 -2,-3 -3,-4 30,-17 60,-34 89,-52 6,6 13,11 19,17 22,18 43,35 64,53 84,74 168,148 244,229 38,40 73,82 102,127 17,24 30,51 41,79 12,33 18,71 18,108 6,-37 8,-75 2,-114 -7,-31 -16,-63 -31,-92 -24,-52 -54,-101 -86,-148 -65,-93 -137,-178 -209,-263 -14,-15 -27,-30 -41,-45 -5,-6 -11,-12 -16,-18 26,-17 51,-35 76,-52 7,5 13,11 20,16 45,37 91,74 136,112 90,78 179,157 259,244 40,43 77,88 107,138 17,26 30,53 41,82 10,31 16,66 16,100 6,-34 6,-69 0,-104 -7,-32 -17,-64 -31,-93 -24,-56 -56,-108 -91,-158 -69,-100 -147,-192 -227,-282 -36,-39 -72,-78 -108,-117 -6,-6 -11,-12 -17,-18 21,-17 41,-34 61,-52 6,6 13,11 19,16 76,60 152,121 226,183 96,82 191,165 275,259 41,46 81,95 112,149 17,27 30,55 40,85 7,20 12,42 14,64 -2,1 -5,2 -7,3 -106,49 -208,108 -301,178 51,-29 99,-61 153,-84 51,-27 105,-47 159,-69 54,-21 109,-39 163,-58 56,-17 111,-34 167,-49 223,-62 450,-110 678,-152 229,-40 458,-76 688,-107 60,-9 120,-16 180,-24 23,-3 46,-6 69,-9 309,81 576,205 807,354 -11,3 -22,6 -33,9 -78,21 -156,42 -234,63 -191,55 -382,111 -571,175 -189,63 -376,132 -559,213 -91,41 -182,84 -268,135 -43,25 -85,53 -125,84 -39,31 -76,65 -103,107 31,-39 71,-69 112,-95 41,-27 85,-50 129,-72 89,-43 181,-80 273,-114 185,-69 374,-128 564,-184 190,-55 381,-109 573,-158 105,-28 211,-55 317,-82 11,-3 22,-5 32,-8 169,120 317,251 448,386 -8,4 -16,8 -24,12 -48,25 -96,50 -144,76 -131,71 -260,148 -382,235 -30,23 -61,44 -90,68 l -44,35 -42,37 c -55,51 -108,105 -146,170 47,-58 105,-105 164,-149 l 44,-32 47,-30 c 30,-21 62,-39 94,-58 126,-76 258,-143 391,-207 56,-27 113,-54 170,-80 8,-4 16,-7 23,-11 174,189 315,381 431,554 -6,6 -12,11 -18,17 -12,10 -23,21 -34,31 l -81,76 c -53,50 -104,104 -156,156 l -73,83 -37,41 c -12,14 -23,29 -34,43 -22,30 -46,58 -67,88 l -60,92 c 173,-206 376,-380 583,-548 l 19,-16 c 45,69 86,133 124,192 117,185 202,318 269,353 281,149 1105,-40 1279,-292 32,-46 47,-113 54,-191 -5,-316 -128,-528 -481,-347 -157,80 -354,-25 -556,-219 l 54,-37 c 122,-79 244,-158 370,-231 31,-18 62,-38 93,-56 l 95,-53 c 64,-35 127,-71 192,-103 127,-66 256,-129 387,-186 98,97 191,186 277,259 18,62 33,126 44,190 14,78 23,158 26,238 3,73 0,147 -6,220 -8,74 -19,146 -35,219 -13,60 -30,119 -49,178 -27,82 -59,162 -97,239 -32,67 -68,132 -107,195 -40,63 -82,124 -130,181 50,-56 94,-116 135,-178 41,-61 79,-126 113,-192 44,-84 82,-172 113,-262 17,-51 33,-103 46,-156 19,-72 32,-146 42,-220 8,-75 13,-150 12,-225 0,-80 -7,-160 -19,-239 -6,-46 -15,-91 -25,-136 54,42 103,75 147,98 4,1 8,2 12,2 0,2 1,3 2,5 3,6 6,13 8,20 1,1 1,2 1,2 20,51 35,104 46,157 24,112 33,227 36,341 0,50 0,100 -2,149 -2,65 -6,131 -12,196 -11,114 -26,229 -48,342 26,-112 45,-226 60,-341 9,-70 16,-140 20,-211 3,-45 5,-90 6,-135 2,-116 -3,-232 -23,-348 -9,-47 -20,-94 -35,-141 -3,-9 -5,-18 -8,-27 52,10 101,17 146,23 7,9 13,18 19,27 23,34 44,69 62,105 27,56 51,114 69,174 13,41 24,82 33,123 4,20 8,40 12,60 11,62 18,125 20,188 2,-63 -1,-127 -8,-190 -2,-23 -6,-46 -9,-69 -7,-40 -14,-79 -24,-119 -14,-62 -35,-123 -60,-182 -11,-29 -25,-57 -40,-84 -5,-9 -10,-18 -15,-26 227,20 370,-21 565,-185 164,-138 221,-265 267,-368 29,-64 54,-119 99,-157 49,-133 54,-225 -78,-489 -135,-269 -117,-668 177,-618 12,2 25,4 37,8 -13,26 -22,53 -27,78 32,-24 74,-59 92,-85 6,-8 10,-15 10,-21 0,-37 -569,-276 -568,-284 0,0 73,-256 98,-321 24,-65 560,605 560,605 l -81,47 -112,65 c -25,155 103,271 190,220 7,-4 13,-9 20,-15 42,-43 141,-57 240,-50 130,9 259,54 255,115 -60,136 -104,242 -158,331 82,-120 161,-242 236,-367 0,0 0,-1 0,-1 z m -817,776 c -1,2 -1,3 -1,4 185,-69 318,-127 419,-186 35,-47 71,-95 105,-143 -99,123 -241,215 -523,325 z m -1901,440 c -58,-7 -47,168 -300,321 -32,19 -11,39 26,38 221,-9 392,-110 441,-142 11,-7 17,-18 16,-31 -3,-85 -122,-178 -183,-186 z m 2200,650 c -1448,1448 -3374,2246 -5423,2246 -2048,0 -3974,-798 -5422,-2246 C 799,11644 1,9718 1,7669 1,5621 799,3695 2247,2247 3695,799 5621,1 7669,1 c 2049,0 3975,798 5423,2246 1448,1448 2246,3374 2246,5422 0,2049 -798,3975 -2246,5423 z M 5953,10235 c 107,143 156,183 226,68 71,-115 66,-366 -119,-321 -56,14 -215,110 -107,253 z m 3813,3058 c 38,-49 -62,-165 -111,-49 -42,99 73,99 111,49 z m -523,-311 c -25,-43 -196,-52 -127,39 69,91 152,4 127,-39 z m 1552,-4304 c 47,14 121,8 76,-54 -44,-61 -168,-288 -148,-188 20,103 25,228 72,242 z m 15,189 c 44,85 155,-14 137,-48 -18,-34 -27,-107 -68,-90 -50,22 -113,53 -69,138 z m 944,569 c -58,61 -154,63 -111,156 43,93 113,4 128,-43 14,-47 35,-167 -17,-113 z m 89,588 c 62,22 196,-213 78,-176 -64,20 -140,155 -78,176 z m -91,-228 c 50,46 124,-66 126,-96 2,-31 19,-108 -45,-71 -32,19 -130,122 -81,167 z m -97,69 c 0,-25 27,-100 -20,-83 -16,5 -155,113 -111,167 43,54 131,-58 131,-84 z m -331,-17 c 2,-33 37,-143 -27,-102 -19,17 -194,206 -116,251 79,45 140,-116 143,-149 z m -225,-76 c -8,6 -233,152 -163,212 70,60 101,48 146,0 46,-47 78,-257 17,-212 z m -169,-106 c -16,8 -200,189 -165,219 35,29 115,33 165,-37 49,-70 86,-224 0,-182 z m 530,308 c -2,-15 -5,-60 -48,-46 -58,20 -103,95 -53,132 51,37 103,-71 101,-86 z M 2439,4006 c 3,-48 42,-93 76,-132 30,-34 59,-66 51,-88 -7,-20 -46,-37 -116,-49 -9,-2 -18,-3 -28,-3 -97,0 -236,76 -305,170 -29,40 -57,101 -25,159 51,95 163,78 196,71 84,-19 149,-74 151,-128 z M 1277,9055 c 239,181 478,-435 140,-502 -262,-52 -380,322 -140,502 z m 517,635 c -183,-118 -418,161 -163,451 256,290 817,-76 726,-252 -91,-175 -256,0 -563,-199 z m 331,1550 c 215,387 654,-178 327,-452 -394,-330 -543,64 -327,452 z m 871,606 c 371,-169 297,-941 0,-933 -204,6 -371,1102 0,933 z m -705,-1370 c 297,149 470,150 520,26 49,-124 150,-464 0,-425 -208,54 -817,250 -520,399 z m 1175,913 c 99,176 368,53 345,-89 -23,-143 -13,-843 -147,-579 -107,210 -297,491 -198,668 z m 5850,1455 c 0,57 46,102 102,102 56,0 102,-45 102,-102 0,-56 -46,-102 -102,-102 -56,0 -102,46 -102,102 z m 1526,-4889 c 0,63 26,114 58,114 33,0 59,-51 59,-114 0,-62 -26,-113 -59,-113 -32,0 -58,51 -58,113 z M 8618,5827 c 104,4 292,-240 259,-289 -33,-50 -373,-12 -453,162 -65,144 90,122 194,127 z m -500,293 c 80,65 180,-170 149,-274 -31,-104 -203,71 -242,177 -44,118 12,31 93,97 z M 2093,4749 c 32,-107 58,-420 -313,-445 -144,-10 -350,313 -159,445 192,132 440,107 472,0 z m -259,1301 c -30,-146 -248,-349 -373,-287 -69,35 -465,301 -250,440 214,138 653,-7 623,-153 z m -483,2237 c 383,-238 433,-438 371,-584 -62,-146 -264,-249 -346,-57 -43,100 -409,880 -25,641 z m 198,-1682 c -126,93 -421,352 -372,549 50,197 739,-126 809,-214 70,-88 -253,-473 -437,-335 z m 979,2073 c -305,-346 -443,-1108 -587,-787 -52,114 -236,1380 45,1383 280,3 706,-409 542,-596 z m 705,1322 c -53,192 -205,664 -50,684 155,20 427,-171 427,-290 0,-119 -323,-588 -377,-394 z M 2811,8859 c -53,107 -481,915 -173,926 309,11 506,-166 444,-349 -61,-184 -193,-739 -271,-577 z m 1267,1606 c 118,-149 231,-289 131,-386 -100,-97 -424,-294 -398,-121 26,171 150,655 267,507 z m -711,-774 c 62,62 520,94 433,-120 -86,-214 -398,-826 -433,-623 -40,235 -62,681 0,743 z m 842,-569 c -124,-68 -390,-177 -437,-67 -45,109 862,1434 828,1150 -33,-285 -266,-1015 -391,-1083 z m 2393,2613 c 283,49 721,53 638,-19 -83,-72 -121,-167 -259,-172 -362,-13 -662,143 -379,191 z m -1192,-797 c -166,-356 -730,-618 -708,-368 22,249 468,668 607,654 157,-17 183,-110 101,-286 z m 75,-3768 c -31,-95 -644,251 -701,367 -34,68 9,235 268,340 260,106 464,-612 433,-707 z m -1024,915 c -216,107 -290,123 -218,275 188,399 510,-330 454,-356 -56,-26 -177,52 -236,81 z m -1395,417 c -138,90 169,117 429,92 260,-25 348,114 522,265 173,151 12,-596 -50,-674 -62,-77 -810,257 -901,317 z m 8266,1092 c 50,-15 30,-273 -48,-198 -33,32 -1,213 48,198 z m -188,-2 c 66,19 95,-253 17,-185 -75,64 -83,166 -17,185 z m -103,-183 c 74,4 66,-214 0,-204 -42,6 -74,201 0,204 z m -165,-204 c 93,16 185,-297 24,-187 -77,53 -117,171 -24,187 z m -422,-492 c 119,13 380,-178 18,-302 -156,-53 -138,290 -18,302 z m 234,305 c 83,-94 25,-306 -258,-169 -98,47 176,263 258,169 z M 9558,8579 c -76,20 -28,212 28,253 78,55 127,-31 140,-119 12,-87 -93,-154 -168,-134 z m 97,389 c -71,33 -24,231 0,337 38,173 215,-32 218,-131 3,-99 -147,-239 -218,-206 z m 318,258 c 21,254 206,187 334,117 128,-70 -173,-132 -254,-236 -82,-104 -86,38 -80,119 z m 697,18 c -12,-70 -212,84 -312,153 -65,43 23,136 125,189 102,54 199,-272 187,-342 z m 159,301 c 109,95 134,-157 109,-227 -25,-70 -180,166 -109,227 z m 707,145 c 49,-36 16,-240 -17,-277 -33,-37 -106,215 -115,253 -14,55 82,60 132,24 z m -6381,198 c -128,-33 -538,-84 -278,218 260,303 695,428 785,345 211,-192 -315,-512 -507,-563 z m 272,-518 c -139,-55 -260,-2 -217,141 44,143 520,325 576,274 55,-50 -44,-292 -359,-415 z m -675,-576 c -216,-148 -413,-25 -328,147 81,166 137,853 427,563 200,-200 127,-555 -99,-710 z M 1635,5175 c -55,4 -80,6 -88,25 -9,20 9,44 58,107 19,25 42,55 70,93 183,250 367,376 550,376 90,0 181,-31 271,-93 109,-76 136,-194 72,-323 -85,-174 -320,-326 -506,-267 -210,67 -351,77 -427,82 z m 1112,687 c -108,0 -779,360 -799,528 -3,27 9,62 81,75 76,14 154,31 229,47 153,34 301,66 416,66 66,0 122,-11 162,-37 36,-24 58,-60 67,-107 36,-193 62,-403 -20,-507 -31,-40 -76,-62 -134,-65 0,0 -1,0 -2,0 z m 296,-757 c 87,0 170,-12 239,-39 80,-31 132,-80 155,-144 48,-136 -75,-201 -230,-284 -139,-74 -312,-167 -410,-340 -47,-83 -98,-93 -131,-87 -108,20 -201,222 -229,405 -28,184 11,323 104,372 130,68 325,117 502,117 z m 10,-1414 c 230,0 463,-38 501,-98 9,-15 8,-32 -4,-47 -15,-20 -32,-44 -49,-70 -97,-140 -243,-353 -544,-310 -211,30 -375,196 -380,325 -2,50 18,138 169,172 87,19 197,28 307,28 z m 194,584 c 76,80 201,122 353,122 73,0 153,-9 236,-29 193,-47 356,-137 378,-212 29,-99 44,-335 -57,-432 -44,-42 -103,-51 -175,-26 -8,3 -20,7 -34,12 -172,56 -694,227 -745,428 -12,48 3,94 44,137 z m 1087,-611 c 32,4 64,5 94,5 181,0 325,-60 351,-154 14,-47 6,-142 -200,-240 -124,-59 -551,-229 -845,68 -60,61 -82,111 -67,154 37,103 283,128 544,154 41,4 82,9 123,13 z m 2218,132 c 201,0 498,-37 584,-136 28,-32 33,-70 15,-109 -74,-163 -253,-253 -444,-240 l -8,9 c -2,-2 -5,-5 -7,-7 -58,5 -118,20 -175,46 -144,64 -223,209 -216,312 4,56 34,96 81,110 31,9 94,15 170,15 z m -497,-334 c 41,-12 65,-34 69,-65 14,-80 -111,-216 -370,-402 -13,-10 -26,-18 -39,-25 -34,-12 -69,-23 -104,-34 -88,-3 -153,69 -234,158 -87,98 -197,219 -381,291 -19,7 -62,24 -52,51 16,46 249,61 499,61 269,0 556,-18 612,-35 z m -468,224 c -108,-50 -172,-9 -208,34 -120,149 -87,560 -18,653 22,29 56,44 99,44 44,0 99,-16 164,-47 254,-124 587,-464 550,-604 -10,-36 -23,-57 -42,-67 -27,-14 -59,-3 -104,12 -88,31 -222,77 -441,-25 z m -1234,533 c 26,127 219,230 390,321 32,17 62,33 90,48 36,20 68,30 98,30 24,0 46,-6 65,-18 77,-48 118,-189 109,-378 -8,-175 -62,-387 -161,-436 -207,-104 -386,89 -551,295 -36,45 -50,92 -40,138 z m -108,200 c -136,-24 -169,46 -207,127 -38,83 -86,187 -269,232 -37,9 -41,32 -39,46 11,108 465,372 775,385 11,1 22,1 33,1 201,0 254,-81 261,-151 24,-223 -367,-607 -554,-640 z m 4,3562 c 43,0 95,-33 163,-102 237,-247 209,-482 186,-572 -30,-117 -104,-206 -192,-234 -145,-44 -348,96 -474,245 -90,105 -129,197 -105,247 9,18 31,38 85,36 121,-7 164,106 206,216 30,78 58,151 115,163 5,1 11,1 16,1 z M 3213,7477 c -193,2 -321,75 -335,191 -26,214 -125,350 -185,431 -39,53 -62,85 -49,112 13,26 56,37 166,41 3,0 7,0 10,0 193,0 682,-175 847,-357 43,-48 62,-93 56,-135 -24,-178 -274,-283 -505,-283 -1,0 -3,0 -5,0 z m -837,-528 c 0,18 18,27 37,36 21,10 45,22 46,43 2,38 -63,126 -385,325 -34,21 -49,44 -46,68 6,41 65,65 114,79 57,16 135,25 224,25 254,0 597,-80 800,-332 31,-38 27,-86 -10,-133 -109,-139 -487,-275 -697,-176 -61,29 -83,47 -83,65 z m 1612,-490 c -68,-116 -185,-158 -329,-120 -155,42 -590,321 -575,430 4,29 32,43 84,43 288,0 422,109 511,182 48,38 86,70 130,70 34,0 71,-19 118,-67 125,-129 154,-380 61,-538 z m 3129,3593 c -224,-66 -455,-103 -380,105 75,209 477,207 490,146 12,-61 50,-203 -110,-251 z m 494,365 c -181,-87 -368,95 -164,170 204,75 528,5 164,-170 z m 773,1307 c 110,-9 220,-17 330,-25 -17,-32 -53,-69 -122,-114 -161,-104 -441,-56 -238,142 10,-1 20,-2 30,-3 z m 340,122 c -2,-21 1,-41 3,-61 -91,8 -182,17 -273,26 170,123 278,102 270,35 z m -268,453 c 156,136 331,249 464,314 54,-24 107,-48 162,-71 -51,-104 -120,-235 -230,-337 -132,30 -264,62 -396,94 z m -87,-80 c 2,-1 4,-1 5,-2 127,-30 254,-59 381,-88 -36,-22 -74,-42 -117,-56 -226,-79 -542,-127 -269,146 z m 675,444 c 62,18 95,9 79,-33 -26,11 -53,22 -79,33 z M 7447,11652 c 56,62 135,109 217,142 8,-1 16,-2 24,-3 114,-12 228,-24 342,-35 -20,-54 -102,-132 -279,-238 -111,-66 -558,-146 -304,134 z m -560,-471 c 162,174 714,174 401,-118 -107,-101 -564,-56 -401,118 z m -447,-852 c -32,138 -133,204 230,409 363,205 466,49 365,-104 -101,-153 -570,-415 -595,-305 z M 8008,9318 c -95,-53 -469,-22 -339,195 131,217 287,269 345,153 58,-117 127,-273 -6,-348 z m -513,348 c -185,-79 -586,-313 -421,24 165,337 272,552 421,404 148,-149 162,-359 0,-428 z m 569,283 c -162,-99 -378,-69 -329,182 48,251 582,375 620,321 39,-54 -68,-367 -291,-503 z m 524,1134 c -204,-53 -273,0 -211,118 62,117 254,106 297,87 43,-19 120,-151 -86,-205 z m -842,203 c 106,174 804,96 455,-29 -123,-44 -560,-145 -455,29 z m 537,-629 c -82,227 193,332 298,311 106,-21 278,21 182,-155 -95,-175 -414,-340 -480,-156 z m -128,370 c 31,-130 -33,-231 -217,-234 -182,-4 -470,30 -352,135 117,106 538,229 569,99 z M 9278,4089 c 18,151 138,300 231,276 93,-24 -251,-455 -231,-276 z m 570,564 c -78,14 17,268 139,275 122,7 14,-303 -139,-275 z m -93,278 c -59,61 -11,381 63,350 75,-31 120,-540 -63,-350 z m -71,-98 c 85,-9 76,-167 -12,-255 -89,-88 -341,-227 -261,-88 -3,129 187,353 273,343 z m -393,-442 c -17,-137 -419,-477 -357,-192 40,184 375,328 357,192 z m 305,800 c 43,-102 78,-139 -38,-324 -117,-186 -255,-323 -280,-93 -14,132 274,519 318,417 z m -1251,153 c 21,-46 8,-199 -62,-145 -99,77 -251,166 -170,241 80,75 211,-51 232,-96 z m 994,-7 c -99,77 -250,166 -170,241 80,74 211,-51 233,-97 21,-45 7,-198 -63,-144 z m -330,-68 c 172,86 249,10 279,-72 29,-83 -123,-480 -198,-330 -85,168 -254,315 -81,402 z m -399,-130 c 169,43 349,-55 294,-244 -56,-189 -137,-235 -215,-140 -84,103 -249,341 -79,384 z m -220,-687 c 173,167 542,167 512,0 -30,-167 -39,-321 -359,-296 -161,12 -327,129 -153,296 z m -655,1347 c -8,-278 -92,-827 -66,-556 27,271 -174,760 -286,632 -112,-128 -239,-981 233,-1757 473,-775 565,29 565,29 0,0 56,-750 -235,-816 -411,-93 -1225,2773 -1053,3192 189,462 849,-446 842,-724 z m 3160,4436 c 74,50 154,-72 157,-104 3,-31 -3,-75 -61,-37 -73,47 -171,90 -96,141 z m 418,30 c 2,-73 7,-176 -73,-134 -136,72 -195,138 -94,198 101,61 165,8 167,-64 z m 165,-15 c 78,78 150,-28 186,-80 35,-52 97,-177 -58,-118 -80,31 -206,119 -128,198 z m 604,78 c 74,-12 74,-204 0,-148 -74,56 -74,161 0,148 z m -138,329 c 64,-44 -12,-143 -89,-84 -76,58 25,129 89,84 z m -47,-386 c -149,-45 -227,150 -139,178 89,28 275,-136 139,-178 z m -491,470 c -50,14 -130,90 -19,140 112,49 124,-169 19,-140 z m -118,-237 c -25,2 13,149 66,139 54,-9 125,-158 -66,-139 z m -140,253 c 173,-57 66,-259 -31,-253 -36,2 -142,311 31,253 z m -194,-346 c -77,15 -288,99 -218,186 70,86 186,24 218,-38 33,-62 63,-160 0,-148 z m -266,-135 c -50,13 -196,73 -140,135 56,62 163,8 192,-37 29,-46 18,-117 -52,-98 z m 28,-318 c -52,30 -232,111 -145,210 87,99 243,-21 256,-74 12,-54 -37,-180 -111,-136 z m -71,-380 c -127,74 -210,256 -132,301 79,45 297,-192 244,-240 -54,-49 -39,-103 -112,-61 z m -429,598 c 149,99 289,-50 219,-173 -70,-124 -82,-296 -189,-257 -125,44 -178,331 -30,430 z m 91,543 c 54,18 202,-99 206,-179 4,-80 -53,-228 -161,-179 -111,52 -99,340 -45,358 z m 408,67 c -6,-28 10,-145 -117,-127 -89,13 -186,190 -81,254 106,65 205,-99 198,-127 z m -337,257 c -15,-53 -33,-161 -132,-121 -88,36 -211,272 -50,350 161,77 198,-177 182,-229 z m -399,117 c 0,-62 -18,-224 -164,-186 -117,31 -151,215 -49,266 102,50 213,-18 213,-80 z m 208,-3315 c -1,-15 0,-32 -6,-46 -8,-17 -26,-29 -74,-29 -88,0 -111,40 -96,81 9,25 32,51 62,69 80,48 117,-40 114,-75 z m 587,3835 c -3,-35 6,-75 -80,-75 -142,0 -115,102 -34,150 80,47 117,-41 114,-75 z m -39,-262 c -3,-35 7,-75 -80,-75 -141,0 -115,102 -34,150 80,48 117,-40 114,-75 z M 9386,8960 c -141,0 -114,102 -34,150 81,47 118,-41 115,-75 -4,-35 6,-75 -81,-75 z m -124,1639 c 80,48 117,-40 114,-75 -3,-35 7,-75 -80,-75 -142,0 -115,102 -34,150 z M 7026,8459 c 105,63 281,-159 29,-194 -108,-14 -134,131 -29,194 z m -5487,955 c 105,63 281,-159 29,-193 -108,-15 -135,130 -29,193 z m 910,2393 c 105,63 281,-160 29,-194 -107,-14 -134,131 -29,194 z m 6616,-1014 c -108,-15 -134,130 -29,193 105,63 281,-159 29,-193 z m 611,-56 c -6,-96 -15,-175 -148,-120 -111,46 -161,297 -37,357 123,60 193,-112 185,-237 z m 314,-150 c -99,29 -149,162 -95,228 53,66 239,54 255,-27 17,-80 -16,-243 -160,-201 z m 2110,-2531 c -66,67 -85,108 -34,149 51,41 120,-235 34,-149 z m -98,-20 c 16,20 128,-239 91,-318 -38,-78 -109,175 -124,237 -20,82 16,60 33,81 z m 19,-578 c -42,-61 -158,226 -188,314 -33,98 49,29 74,43 25,14 157,-295 114,-357 z m -135,-115 c -24,-99 -170,169 -169,245 4,192 194,-146 169,-245 z m 66,-93 c 87,-27 143,9 99,-160 -43,-170 -442,-579 -428,-427 10,112 243,613 329,587 z m -593,-1165 c -86,167 104,308 231,308 127,0 -149,-469 -231,-308 z m -1070,-315 c 160,-25 278,-31 210,-155 -68,-123 -566,-575 -507,-372 61,212 136,552 297,527 z m 525,509 c -80,-89 -166,-124 -126,-31 16,38 58,185 126,181 68,-4 81,-61 0,-150 z m -272,-39 c 118,-50 25,-528 -253,-307 -222,176 136,356 253,307 z m 223,-365 v 31 c 43,161 266,621 371,450 105,-172 -334,-629 -371,-481 z M 6683,8489 c -130,-64 -536,188 -681,312 -181,154 501,185 681,103 179,-82 129,-351 0,-415 z m 117,-473 c -49,-130 -789,50 -915,116 -106,56 600,205 742,227 142,22 223,-214 173,-343 z M 9119,6120 c 211,-66 640,-579 603,-653 -38,-74 -583,434 -713,536 -74,58 -100,183 110,117 z m -795,333 c 90,-8 486,-475 478,-517 -8,-42 -615,283 -680,420 -29,59 111,105 202,97 z m -809,656 c 29,29 429,-759 404,-842 -25,-82 -470,486 -497,567 -19,56 64,246 93,275 z m 29,502 c 79,-49 136,-289 116,-355 -21,-66 -539,369 -557,437 -29,112 363,-33 441,-82 z m -396,-280 c -25,-13 -684,475 -713,499 -51,41 367,-5 423,-29 56,-25 315,-458 290,-470 z m -238,-40 c 130,12 377,-457 365,-532 -13,-74 -495,415 -600,495 -105,81 105,25 235,37 z M 8903,3840 c 25,-68 285,-495 136,-983 -266,123 -86,344 -717,540 0,103 -93,499 55,486 149,-12 501,25 526,-43 z m 1323,4519 c 93,27 139,-162 131,-220 -9,-58 -62,-156 -112,-123 -111,73 -113,316 -19,343 z m -1,374 c 8,-91 -21,-342 -130,-289 -197,95 -327,277 -189,415 137,138 310,-36 319,-126 z M 8938,8594 c -86,-97 -412,314 -247,461 165,148 272,117 346,0 74,-116 107,-229 -99,-461 z m -387,617 c -168,49 -426,214 -329,321 98,108 444,230 514,107 70,-123 4,-483 -185,-428 z m 268,808 c -13,-107 -131,-257 -233,-231 -179,47 -422,232 -237,306 185,74 484,32 470,-75 z m -2726,676 c -337,-81 -444,297 -346,413 98,115 684,357 808,224 123,-134 16,-521 -462,-637 z m 453,-1550 c -260,-10 -767,82 -569,379 198,297 561,516 759,324 198,-192 429,-678 -190,-703 z m -923,-127 c 239,-203 123,-962 -264,-879 -186,40 -619,132 -602,264 16,132 627,818 866,615 z m 165,-1201 c 156,140 478,140 503,-91 25,-230 -297,-731 -503,-563 -178,145 -157,514 0,654 z M 4258,5795 c -25,111 -260,612 0,711 260,99 422,-260 406,-507 -16,-248 70,-532 -134,-378 -73,56 -247,62 -272,174 z M 3008,5498 c -55,229 180,464 440,544 259,80 562,192 587,0 25,-192 -30,-1108 -392,-717 -470,509 -579,-56 -635,173 z m 8487,1057 c -42,-75 -212,-138 -231,-78 -66,203 297,973 321,957 25,-17 -49,-804 -90,-879 z m -384,-102 c -103,-82 -198,69 -210,152 -13,82 200,396 268,535 42,86 95,13 95,-28 0,-41 -50,-577 -153,-659 z m -313,637 c 173,109 323,144 243,0 -83,-149 -165,-341 -260,-300 -95,42 -156,191 17,300 z m -62,-465 c -12,-70 8,-234 -124,-148 -95,62 -276,297 -156,379 119,83 292,-160 280,-231 z m -342,689 c 132,4 185,-10 181,-96 -4,-85 -282,-311 -286,-237 -6,94 -27,329 105,333 z m -202,-460 c 90,27 177,-216 222,-348 46,-132 -66,-256 -173,-132 -82,95 -140,453 -49,480 z M 9087,6650 c -13,-62 -87,-262 -128,-123 -9,27 -124,294 0,293 123,-1 140,-108 128,-170 z m 32,-173 c -4,178 475,12 536,-121 61,-134 34,-283 -169,-304 -202,-20 -363,285 -367,425 z m 797,553 c 43,90 120,358 179,358 59,0 200,0 194,-74 -7,-74 -159,-312 -233,-333 -75,-21 -184,-42 -140,49 z m -25,-673 c -87,-28 -210,276 -219,413 -6,88 293,111 338,50 46,-61 -33,-434 -119,-463 z m -685,2444 c 56,-7 180,6 186,-174 6,-179 -23,-414 -104,-439 -82,-24 -321,-18 -279,130 40,141 141,489 197,483 z m 449,-1157 c 194,31 318,-179 293,-312 -24,-133 -215,-463 -293,-313 -45,87 -195,594 0,625 z m 260,272 c -10,-111 -802,-408 -796,-148 6,215 422,520 536,591 114,71 270,-332 260,-443 z M 8093,7496 c -124,-24 -623,234 -761,389 -149,167 117,378 266,402 148,25 383,-377 495,-501 111,-123 123,-266 0,-290 z m 577,-615 c 194,-12 152,-618 128,-651 -118,-159 -447,426 -520,540 -70,110 198,124 392,111 z m -602,-400 c -54,-58 -341,558 -355,609 -28,105 314,80 421,26 107,-53 -12,-577 -66,-635 z m 2548,1311 c 0,0 229,588 279,600 49,13 303,-148 204,-600 -328,-18 -483,0 -483,0 z m 978,1102 c -88,24 -199,8 -328,-75 -347,-222 -773,-693 -977,-1200 154,-37 699,13 1199,-31 211,272 -235,190 -197,367 34,166 474,498 501,686 391,417 415,1291 415,1500 -135,-787 -395,-1095 -613,-1247 z M 4815,7010 c 734,-1247 948,81 1715,-116 -230,-353 -101,-2001 1108,-3470 v 0 c -265,272 -2102,1008 -2700,1367 0,148 -30,1079 -38,1145 -66,544 -338,1503 -85,1074 z M 7660,3397 c -8,9 -15,18 -22,27 9,-10 16,-19 22,-27 z m 2450,8783 c 144,-41 289,-77 435,-107 83,-17 167,-32 252,-43 -69,-69 -137,-138 -205,-205 -152,29 -303,60 -454,92 -194,41 -388,84 -582,127 -116,26 -232,52 -348,79 63,96 129,194 198,290 92,-35 184,-68 277,-100 142,-48 284,-93 427,-133 z m 23,73 c -140,48 -280,96 -418,148 -84,30 -167,62 -250,93 100,135 203,261 306,369 23,-16 47,-32 71,-48 124,-79 248,-158 377,-230 32,-17 64,-36 96,-53 l 99,-51 98,-50 c 33,-17 67,-31 100,-46 125,-58 253,-110 383,-155 -59,-58 -118,-119 -179,-180 -87,21 -173,45 -259,70 -143,41 -284,87 -424,133 z m -592,-285 c 196,-36 392,-68 588,-98 150,-22 300,-42 451,-57 -70,-69 -139,-134 -206,-193 -197,27 -394,46 -592,66 l -695,65 c -35,4 -70,7 -105,10 9,17 19,35 30,53 45,72 93,150 144,229 128,-26 256,-51 385,-75 z m 238,-330 c 195,-9 390,-16 585,-27 -195,-172 -370,-291 -491,-279 -352,37 -1099,-99 -927,351 45,-3 90,-6 135,-8 233,-15 465,-26 698,-37 z m 702,-152 c 11,-36 -8,-73 -43,-85 -36,-11 -73,9 -85,44 -11,35 9,73 44,84 35,11 73,-8 84,-43 z m 588,560 c -12,35 8,73 43,84 36,11 73,-9 84,-44 12,-35 -8,-73 -43,-84 -35,-11 -73,8 -84,44 z m -149,-158 c 11,-36 -8,-73 -43,-84 -36,-12 -73,8 -84,43 -12,35 8,73 43,84 35,12 73,-8 84,-43 z m 429,486 c -11,35 8,73 44,84 35,11 73,-8 84,-43 11,-36 -9,-73 -44,-84 -35,-12 -73,8 -84,43 z m 69,-217 c -11,35 8,72 44,84 35,11 73,-9 84,-44 11,-35 -9,-73 -44,-84 -35,-11 -73,8 -84,44 z m 434,114 c 11,-35 -8,-73 -43,-84 -36,-11 -73,8 -84,43 -12,36 8,73 43,85 35,11 73,-9 84,-44 z m 141,249 c -12,35 8,73 43,84 36,11 73,-8 84,-43 12,-36 -8,-73 -43,-85 -36,-11 -73,9 -84,44 z m 49,-287 c -36,-11 -73,8 -85,44 -11,35 9,73 44,84 35,11 73,-8 84,-44 11,-35 -8,-73 -43,-84 z m 122,64 c -11,36 8,73 43,85 36,11 73,-9 84,-44 12,-35 -8,-73 -43,-84 -35,-11 -73,8 -84,43 z m 314,41 c 11,-35 -8,-73 -43,-84 -36,-11 -73,8 -84,43 -12,36 8,73 43,85 35,11 73,-9 84,-44 z m 72,-370 c 11,-36 -8,-73 -43,-85 -36,-11 -73,9 -84,44 -12,35 8,73 43,84 35,11 73,-8 84,-43 z m -322,-450 c 0,37 30,67 67,67 37,0 67,-30 67,-67 0,-37 -30,-67 -67,-67 -37,0 -67,30 -67,67 z m -620,974 c -8,45 41,91 109,103 69,12 131,-15 139,-59 7,-45 -42,-91 -110,-104 -68,-12 -130,15 -138,60 z m 475,-616 c -8,45 41,91 110,103 68,12 130,-14 138,-59 8,-45 -41,-91 -110,-103 -68,-12 -130,14 -138,59 z m -213,-143 c -69,-13 -130,14 -138,59 -8,45 41,91 109,103 68,12 130,-14 138,-59 8,-45 -41,-91 -109,-103 z m -542,-36 c -13,44 29,96 95,117 67,21 131,3 145,-40 14,-44 -29,-96 -95,-117 -66,-21 -131,-3 -145,40 z m -213,-225 c -60,-34 -127,-31 -150,9 -23,39 8,99 68,134 60,35 127,31 150,-8 23,-40 -8,-100 -68,-135 z m -379,-364 c -52,0 -93,41 -93,93 0,51 41,92 93,92 51,0 92,-41 92,-92 0,-52 -41,-93 -92,-93 z m 381,-93 c 0,-51 -41,-93 -92,-93 -52,0 -93,42 -93,93 0,51 41,93 93,93 51,0 92,-42 92,-93 z m 196,93 c -51,0 -93,41 -93,93 0,51 42,92 93,92 51,0 93,-41 93,-92 0,-52 -42,-93 -93,-93 z m 293,132 c -51,0 -93,41 -93,92 0,52 42,93 93,93 51,0 93,-41 93,-93 0,-51 -42,-92 -93,-92 z m 58,-736 c 0,-51 -42,-93 -93,-93 -51,0 -93,42 -93,93 0,51 42,93 93,93 51,0 93,-42 93,-93 z m 280,377 c 0,-51 -42,-93 -93,-93 -51,0 -93,42 -93,93 0,51 42,93 93,93 51,0 93,-42 93,-93 z m 138,544 c 0,-51 -41,-93 -93,-93 -51,0 -92,42 -92,93 0,51 41,93 92,93 52,0 93,-42 93,-93 z M 9177,9623 c 93,44 275,-2 269,-162 -6,-161 -266,-258 -324,-122 -62,68 -38,241 55,284 z m 875,47 c -6,-161 -266,-258 -324,-122 -62,68 -37,241 55,285 93,43 276,-2 269,-163 z m -431,447 c -62,68 -38,241 55,285 93,43 275,-2 269,-163 -6,-161 -266,-258 -324,-122 z m -471,-141 c -61,68 -37,241 56,284 93,44 275,-1 269,-162 -6,-161 -266,-258 -325,-122 z m -377,266 c -65,21 -185,173 -111,235 74,62 260,161 371,80 111,-80 -87,-371 -260,-315 z m -12,-2023 c 105,-111 55,-519 0,-544 -56,-25 -263,34 -396,192 -99,117 291,464 396,352 z M 8464,7201 c -25,237 476,375 532,245 55,-130 -81,-452 -155,-498 -74,-47 -365,138 -377,253 z m 686,-52 c 93,93 254,56 297,-68 44,-124 -87,-462 -160,-371 -93,116 -229,346 -137,439 z m 928,-989 c 62,-99 -62,-427 -86,-477 -25,-49 -288,73 -254,272 37,217 278,303 340,205 z M 8148,8280 c -57,-42 -266,-59 -224,65 34,102 305,363 239,635 -66,272 379,74 363,-280 -17,-355 -320,-379 -378,-420 z m -183,738 c 140,-184 -91,-500 -322,-566 -231,-66 -337,268 -684,264 -229,-2 148,314 305,487 157,173 561,0 701,-185 z m -985,2867 c -27,4 -54,8 -81,12 -199,32 -397,68 -594,110 -228,48 -455,107 -677,180 -56,19 -110,40 -165,60 l -82,33 c -23,10 -46,20 -69,31 0,-22 -2,-44 -6,-65 -7,-32 -16,-63 -29,-93 -26,-60 -60,-116 -96,-169 -74,-107 -159,-204 -245,-299 -66,-72 -133,-141 -199,-210 -6,-6 -12,-12 -18,-17 1,-2 2,-3 3,-4 -8,-6 -15,-12 -23,-17 -10,-10 -19,-20 -29,-30 -85,-88 -171,-176 -245,-266 -260,-422 -94,-873 -92,-879 l 16,-42 8,45 c 220,1305 1448,1465 2531,1606 31,4 62,9 92,14 z"
     id="path1986"
     style="display:inline" /></g></svg>
