<?xml version="1.0" encoding="utf-8"?><svg xmlns="http://www.w3.org/2000/svg" xmlns:xlink="http://www.w3.org/1999/xlink" width="600" height="200" preserveAspectRatio="xMidYMid" viewBox="0 0 600 200" style="z-index:1;margin-right:-2px;display:block;animation-play-state:paused" ><g transform="translate(300,100) scale(1,1) translate(-300,-100)" style="animation-play-state:paused" ><linearGradient id="lg-0.39922580860999446" x1="0" x2="1" y1="0" y2="0" style="animation-play-state:paused" ><stop stop-color="#1a4596" offset="0" style="animation-play-state:paused" ></stop>

  
<stop stop-color="#de1477" offset="1" style="animation-play-state:paused" ></stop></linearGradient>
<path d="M0 0L0 155.57461547851562Q75 172.24066162109375 150 153.78628540039062T300 123.0478744506836T450 107.2480239868164T600 84.5206527709961L600 0Z" fill="url(#lg-0.39922580860999446)" opacity="0.4" style="opacity:0.4;animation-play-state:paused" ></path>
<path d="M0 0L0 188.74392700195312Q75 191.4906768798828 150 145.31138610839844T300 106.24870300292969T450 71.79945373535156T600 60.65388107299805L600 0Z" fill="url(#lg-0.39922580860999446)" opacity="0.4" style="opacity:0.4;animation-play-state:paused" ></path>
<path d="M0 0L0 173.86753845214844Q75 185.84498596191406 150 146.43650817871094T300 117.53033447265625T450 95.26177215576172T600 59.673439025878906L600 0Z" fill="url(#lg-0.39922580860999446)" opacity="0.4" style="opacity:0.4;animation-play-state:paused" ></path>
<path d="M0 0L0 166.3582305908203Q75 181.5342559814453 150 144.31739807128906T300 114.52896881103516T450 112.73733520507812T600 59.10556411743164L600 0Z" fill="url(#lg-0.39922580860999446)" opacity="0.4" style="opacity:0.4;animation-play-state:paused" ></path>
<path d="M0 0L0 159.75360107421875Q75 178.40374755859375 150 141.0159149169922T300 117.05550384521484T450 70.95040130615234T600 55.98283386230469L600 0Z" fill="url(#lg-0.39922580860999446)" opacity="0.4" style="opacity:0.4;animation-play-state:paused" ></path>
<path d="M0 0L0 167.8280792236328Q75 178.12176513671875 150 146.53329467773438T300 107.38325500488281T450 83.5807113647461T600 71.79194641113281L600 0Z" fill="url(#lg-0.39922580860999446)" opacity="0.4" style="opacity:0.4;animation-play-state:paused" ></path>
<path d="M0 0L0 165.89450073242188Q75 171.22906494140625 150 158.02874755859375T300 138.5428009033203T450 107.49054718017578T600 78.71693420410156L600 0Z" fill="url(#lg-0.39922580860999446)" opacity="0.4" style="opacity:0.4;animation-play-state:paused" ></path>
<path d="M0 0L0 175.98976135253906Q75 182.53575134277344 150 156.63671875T300 119.50939178466797T450 110.26544952392578T600 59.40581130981445L600 0Z" fill="url(#lg-0.39922580860999446)" opacity="0.4" style="opacity:0.4;animation-play-state:paused" ></path>
<path d="M0 0L0 176.75425720214844Q75 162.5150909423828 150 139.83616638183594T300 119.39706420898438T450 99.77110290527344T600 61.615684509277344L600 0Z" fill="url(#lg-0.39922580860999446)" opacity="0.4" style="opacity:0.4;animation-play-state:paused" ></path>
<path d="M0 0L0 164.4740753173828Q75 202.55709838867188 150 153.5319366455078T300 131.66439819335938T450 94.64920043945312T600 68.45370483398438L600 0Z" fill="url(#lg-0.39922580860999446)" opacity="0.4" style="opacity:0.4;animation-play-state:paused" ></path></g></svg>